<svg width="250" height="250" viewBox="0 0 250 250" fill="none" xmlns="http://www.w3.org/2000/svg">
<circle cx="125" cy="125" r="119.5" fill="#2834FF" stroke="white" stroke-width="11"/>
<path d="M80.0158 84V26.4H136.716C148.356 26.4 156.936 27.54 162.456 29.82C167.976 32.1 170.736 36.06 170.736 41.7C170.736 45.3 169.536 48.06 167.136 49.98C164.796 51.9 161.406 53.25 156.966 54.03C152.586 54.75 147.306 55.2 141.126 55.38L141.846 54.66C146.346 54.66 150.516 54.78 154.356 55.02C158.196 55.26 161.556 55.8 164.436 56.64C167.316 57.48 169.566 58.77 171.186 60.51C172.806 62.25 173.616 64.65 173.616 67.71C173.616 71.43 172.296 74.49 169.656 76.89C167.016 79.29 163.266 81.09 158.406 82.29C153.546 83.43 147.816 84 141.216 84H80.0158ZM102.516 67.08H141.216C144.396 67.08 146.676 66.78 148.056 66.18C149.496 65.58 150.216 64.62 150.216 63.3C150.216 62.4 149.886 61.68 149.226 61.14C148.626 60.6 147.666 60.21 146.346 59.97C145.026 59.67 143.316 59.52 141.216 59.52H102.516V67.08ZM102.516 50.88H137.436C140.616 50.88 142.896 50.58 144.276 49.98C145.716 49.38 146.436 48.42 146.436 47.1C146.436 45.72 145.716 44.76 144.276 44.22C142.896 43.62 140.616 43.32 137.436 43.32H102.516V50.88ZM123.376 155.92C115.056 155.92 107.408 155.408 100.432 154.384C93.5195 153.424 87.5035 151.76 82.3835 149.392C77.3275 146.96 73.3915 143.664 70.5755 139.504C67.8235 135.344 66.4475 130.096 66.4475 123.76C66.4475 117.424 67.8555 112.144 70.6715 107.92C73.4875 103.632 77.5195 100.24 82.7675 97.744C88.0795 95.184 94.3835 93.36 101.68 92.272C109.04 91.184 117.232 90.64 126.256 90.64C138.096 90.64 148.016 91.728 156.016 93.904C164.08 96.08 170.224 99.184 174.448 103.216C178.672 107.184 180.944 111.92 181.264 117.424H156.304C155.536 116.016 154.128 114.672 152.08 113.392C150.032 112.048 146.96 110.96 142.864 110.128C138.768 109.296 133.232 108.88 126.256 108.88C118.064 108.88 111.408 109.392 106.288 110.416C101.168 111.376 97.4235 112.944 95.0555 115.12C92.6875 117.296 91.5035 120.176 91.5035 123.76C91.5035 126.896 92.7195 129.488 95.1515 131.536C97.5835 133.584 101.488 135.12 106.864 136.144C112.24 137.168 119.344 137.68 128.176 137.68C134.384 137.68 139.76 137.424 144.304 136.912C148.912 136.336 153.072 135.472 156.784 134.32C160.56 133.168 164.304 131.728 168.016 130L170.32 132.784C166.352 140.272 160.464 146 152.656 149.968C144.848 153.936 135.088 155.92 123.376 155.92ZM163.792 154C163.792 152.08 164.048 149.904 164.56 147.472C165.072 145.04 165.712 142.512 166.479 139.888C167.312 137.2 168.112 134.672 168.88 132.304H131.44V122.224H182.608V154H163.792ZM80.0158 224V166.4H136.716C148.356 166.4 156.936 167.54 162.456 169.82C167.976 172.1 170.736 176.06 170.736 181.7C170.736 185.3 169.536 188.06 167.136 189.98C164.796 191.9 161.406 193.25 156.966 194.03C152.586 194.75 147.306 195.2 141.126 195.38L141.846 194.66C146.346 194.66 150.516 194.78 154.356 195.02C158.196 195.26 161.556 195.8 164.436 196.64C167.316 197.48 169.566 198.77 171.186 200.51C172.806 202.25 173.616 204.65 173.616 207.71C173.616 211.43 172.296 214.49 169.656 216.89C167.016 219.29 163.266 221.09 158.406 222.29C153.546 223.43 147.816 224 141.216 224H80.0158ZM102.516 207.08H141.216C144.396 207.08 146.676 206.78 148.056 206.18C149.496 205.58 150.216 204.62 150.216 203.3C150.216 202.4 149.886 201.68 149.226 201.14C148.626 200.6 147.666 200.21 146.346 199.97C145.026 199.67 143.316 199.52 141.216 199.52H102.516V207.08ZM102.516 190.88H137.436C140.616 190.88 142.896 190.58 144.276 189.98C145.716 189.38 146.436 188.42 146.436 187.1C146.436 185.72 145.716 184.76 144.276 184.22C142.896 183.62 140.616 183.32 137.436 183.32H102.516V190.88Z" fill="white" fill-opacity="0.87"/>
</svg>
